<svg xmlns="http://www.w3.org/2000/svg" width="24" height="24" viewBox="0 0 24 24" fill="none">
  <path d="M21.74 10.07C21.7153 9.82504 21.6002 9.59809 21.4171 9.43349C21.234 9.2689 20.9961 9.17852 20.75 9.18H13.2C12.65 9.18 12.2 9.63 12.2 10.18V11.89C12.2 12.44 12.65 12.89 13.2 12.89H17.71C17.6 13.81 17 15.2 15.67 16.13C14.82 16.72 13.69 17.13 12.2 17.13C12.13 17.13 12.07 17.13 12 17.12C9.44995 17.04 7.28995 15.33 6.50995 12.98C6.29365 12.3422 6.1822 11.6735 6.17995 11C6.17995 10.31 6.29995 9.64 6.49995 9.02C6.55995 8.84 6.62995 8.66 6.70995 8.48C7.62995 6.41 9.63995 4.95 12 4.88C12.06 4.87 12.13 4.87 12.2 4.87C13.63 4.87 14.7 5.34 15.45 5.86C15.84 6.13 16.36 6.07 16.7 5.74L18.09 4.38C18.53 3.95 18.49 3.22 17.99 2.86C16.4 1.69 14.46 1 12.2 1C12.13 1 12.07 1 12 1.01C10.1813 1.04221 8.4062 1.57184 6.86723 2.54141C5.32825 3.51098 4.08417 4.88348 3.26995 6.51C2.58995 7.87 2.19995 9.39 2.19995 11C2.19995 12.61 2.58995 14.13 3.26995 15.49H3.27995C4.09303 17.1153 5.33547 18.4871 6.8726 19.4566C8.40973 20.4261 10.1829 20.9564 12 20.99C12.07 21 12.13 21 12.2 21C14.9 21 17.17 20.11 18.82 18.58C20.7099 16.83 21.7999 14.27 21.7999 11.22C21.7999 10.79 21.78 10.42 21.74 10.07Z" fill="white"/>
</svg>