<svg xmlns="http://www.w3.org/2000/svg" width="100" height="100" viewBox="0 0 100 100" fill="none">
  <g clip-path="url(#clip0_6_49)">
    <path fill-rule="evenodd" clip-rule="evenodd" d="M-0.0249939 -0.0333252C33.3084 -0.0333252 66.6415 -0.0333252 99.975 -0.0333252C99.975 33.3 99.975 66.6333 99.975 99.9667C66.6415 99.9667 33.3084 99.9667 -0.0249939 99.9667C-0.0249939 66.6333 -0.0249939 33.3 -0.0249939 -0.0333252Z" fill="#FEFEFE"/>
    <path fill-rule="evenodd" clip-rule="evenodd" d="M45.975 33.3667C47.5251 33.3555 49.0751 33.3667 50.625 33.4C52.1135 33.829 52.9885 35.0401 53.25 37.0333C53.2835 38.1667 53.2835 39.3 53.25 40.4333C52.9 42.845 51.808 44.1339 49.975 44.3C49.9069 43.0868 49.4235 42.3646 48.525 42.1333C47.7583 42.1111 46.9916 42.0889 46.225 42.0667C44.3065 41.6873 43.3731 40.1984 43.425 37.6C43.4364 35.2853 44.2864 33.8741 45.975 33.3667Z" fill="#1E1E24"/>
    <path fill-rule="evenodd" clip-rule="evenodd" d="M49.125 44.1C49.125 44.5445 49.125 44.9889 49.125 45.4333C49.5009 45.455 49.8676 45.4328 50.225 45.3667C52.2285 45.0847 53.487 43.6402 54 41.0333C54.036 40.6986 54.078 40.3653 54.125 40.0333C55.4185 40.4389 56.2105 41.5056 56.5 43.2333C56.714 44.7915 56.464 46.1915 55.75 47.4333C55.262 48.042 54.687 48.4309 54.025 48.6C53.0405 48.6629 52.057 48.7295 51.075 48.8C50.38 49.1982 50.0135 49.8982 49.975 50.9C48.1327 50.6997 47.041 49.3885 46.7 46.9667C46.6616 45.7209 46.6699 44.4764 46.725 43.2333C47.3252 43.2222 47.9252 43.2333 48.525 43.2667C48.8715 43.362 49.0715 43.6397 49.125 44.1Z" fill="#1E1E24"/>
    <path fill-rule="evenodd" clip-rule="evenodd" d="M49.125 44.1C49.1745 44.5097 49.1912 44.9319 49.175 45.3667C49.525 45.3667 49.875 45.3667 50.225 45.3667C49.8676 45.4328 49.501 45.455 49.125 45.4333C49.125 44.9889 49.125 44.5445 49.125 44.1Z" fill="#98989B"/>
    <path fill-rule="evenodd" clip-rule="evenodd" d="M58.225 53.9C59.243 53.7784 60.2265 53.9673 61.175 54.4667C62.0725 54.9299 62.681 55.7633 63 56.9667C63.1545 58.2828 62.8625 59.3828 62.125 60.2667C61.6125 60.7439 61.0455 60.8994 60.425 60.7333C59.738 60.4892 59.43 59.9003 59.5 58.9667C59.6195 58.5809 59.753 58.2031 59.9 57.8333C60.058 56.998 59.808 56.5535 59.15 56.5C58.746 56.5361 58.4295 56.7805 58.2 57.2333C57.5215 58.7995 57.505 60.3773 58.15 61.9667C59.0415 63.2995 60.083 63.5329 61.275 62.6667C61.6655 62.2394 62.0825 61.8617 62.525 61.5333C63.2255 61.4227 63.5505 61.8339 63.5 62.7667C63.324 63.5341 63.024 64.2008 62.6 64.7667C61.405 66.2235 59.997 66.8127 58.375 66.5333C55.9655 66.0763 54.5905 64.2429 54.25 61.0333C54.08 59.0529 54.463 57.2973 55.4 55.7667C56.1875 54.7251 57.129 54.1029 58.225 53.9Z" fill="#0363DB"/>
    <path fill-rule="evenodd" clip-rule="evenodd" d="M65.975 53.9C66.5595 53.7955 67.0845 53.9732 67.55 54.4333C67.6715 54.7027 67.7545 54.9916 67.8 55.3C67.8165 56.3889 67.8335 57.4778 67.85 58.5667C68.8795 57.7434 69.9715 57.5545 71.125 58C71.5195 58.3713 71.778 58.8713 71.9 59.5C71.9555 59.8318 72.0055 60.1651 72.05 60.5C72.1065 62.06 72.0735 63.6156 71.95 65.1667C71.844 65.8191 71.5525 66.2301 71.075 66.4C70.6915 66.4445 70.3085 66.4445 69.925 66.4C69.453 66.2597 69.1945 65.8709 69.15 65.2333C69.1335 63.9 69.1165 62.5667 69.1 61.2333C69.0415 60.766 68.833 60.5438 68.475 60.5667C68.165 60.5789 67.9565 60.7789 67.85 61.1667C67.8335 62.2555 67.8165 63.3445 67.8 64.4333C67.6555 66.1139 66.9635 66.7473 65.725 66.3333C65.4 66.1667 65.175 65.8667 65.05 65.4333C65 65.1445 64.95 64.8555 64.9 64.5667C64.8665 61.4778 64.8665 58.3889 64.9 55.3C65.0605 54.5556 65.419 54.0889 65.975 53.9Z" fill="#0363DB"/>
    <path fill-rule="evenodd" clip-rule="evenodd" d="M16.125 54.0333C18.9814 53.8965 20.623 55.7187 21.05 59.5C21.1147 61.3066 21.0647 63.1066 20.9 64.9C20.8226 65.4067 20.6476 65.8401 20.375 66.2C20.2522 66.3041 20.1188 66.3708 19.975 66.4C18.3765 66.7467 17.6932 65.8465 17.925 63.7C17.175 63.7 16.425 63.7 15.675 63.7C15.8932 65.9089 15.1766 66.8087 13.525 66.4C13.1634 66.2067 12.9218 65.8623 12.8 65.3667C12.4973 63.2227 12.4473 61.0671 12.65 58.9C13.054 56.3061 14.2123 54.6839 16.125 54.0333Z" fill="#0363DB"/>
    <path fill-rule="evenodd" clip-rule="evenodd" d="M42.375 54.0333C42.7254 54.0223 43.0754 54.0333 43.425 54.0667C43.9685 54.1691 44.2768 54.5803 44.35 55.3C44.3833 58.3667 44.3833 61.4333 44.35 64.5C44.1771 66.1885 43.4687 66.7993 42.225 66.3333C41.9905 66.2317 41.8071 66.0427 41.675 65.7667C40.7973 66.5048 39.8473 66.738 38.825 66.4667C37.774 65.7886 37.199 64.6663 37.1 63.1C36.9159 61.6163 37.1159 60.2385 37.7 58.9667C38.3588 57.822 39.2171 57.4331 40.275 57.8C40.6704 57.9359 41.0287 58.1692 41.35 58.5C41.353 57.4298 41.3864 56.3631 41.45 55.3C41.6008 54.6656 41.9092 54.2434 42.375 54.0333Z" fill="#0463DB"/>
    <path fill-rule="evenodd" clip-rule="evenodd" d="M85.525 56.0333C85.525 56.7667 85.525 57.5 85.525 58.2333C85.675 58.2333 85.825 58.2333 85.975 58.2333C86.302 58.2393 86.619 58.3171 86.925 58.4667C87.2495 58.932 87.3075 59.4543 87.1 60.0333C86.918 60.2305 86.7095 60.3527 86.475 60.4C86.159 60.4333 85.842 60.4444 85.525 60.4333C85.5165 61.2781 85.525 62.1225 85.55 62.9667C85.7345 63.5355 85.9845 63.5799 86.3 63.1C86.5655 62.3111 86.932 62.2222 87.4 62.8333C87.2975 65.4813 86.2555 66.67 84.275 66.4C83.4275 66.2036 82.9025 65.5481 82.7 64.4333C82.6545 64.147 82.621 63.8581 82.6 63.5667C82.575 62.5225 82.5665 61.478 82.575 60.4333C81.8405 60.4205 81.532 59.9317 81.65 58.9667C81.851 58.4933 82.1595 58.2489 82.575 58.2333C82.214 56.6291 82.614 55.5514 83.775 55C84.2485 54.7536 84.732 54.7091 85.225 54.8667C85.4665 55.1853 85.5665 55.5743 85.525 56.0333Z" fill="#0363DB"/>
    <path fill-rule="evenodd" clip-rule="evenodd" d="M16.475 56.9667C16.917 56.8671 17.3087 57.0004 17.65 57.3667C17.7166 57.5445 17.7833 57.7222 17.85 57.9C17.922 58.9851 17.947 60.074 17.925 61.1667C17.175 61.1667 16.425 61.1667 15.675 61.1667C15.6531 60.0962 15.6781 59.0295 15.75 57.9667C15.8675 57.4656 16.1092 57.1323 16.475 56.9667Z" fill="#FDFEFE"/>
    <path fill-rule="evenodd" clip-rule="evenodd" d="M85.525 56.0333C85.5745 56.7325 85.5915 57.4436 85.575 58.1667C85.7195 58.1463 85.8525 58.1685 85.975 58.2333C85.825 58.2333 85.675 58.2333 85.525 58.2333C85.525 57.5 85.525 56.7667 85.525 56.0333Z" fill="#C8DCF6"/>
    <path fill-rule="evenodd" clip-rule="evenodd" d="M30.475 57.7C31.4297 57.5579 32.288 57.869 33.05 58.6333C33.5238 57.8451 34.1322 57.5895 34.875 57.8667C35.1014 57.9676 35.3097 58.1121 35.5 58.3C35.6405 58.5635 35.7405 58.8525 35.8 59.1667C35.8333 61.1222 35.8333 63.0778 35.8 65.0333C35.7668 65.4217 35.6584 65.7661 35.475 66.0667C35.2888 66.2162 35.0888 66.3273 34.875 66.4C34.4916 66.4445 34.1083 66.4445 33.725 66.4C33.4621 66.3049 33.2454 66.1161 33.075 65.8333C32.3184 66.4373 31.5017 66.6707 30.625 66.5333C29.7734 66.2649 29.1817 65.5871 28.85 64.5C28.4386 62.974 28.4219 61.4407 28.8 59.9C29.1233 58.8355 29.6816 58.1022 30.475 57.7Z" fill="#0463DB"/>
    <path fill-rule="evenodd" clip-rule="evenodd" d="M47.525 57.7C48.4797 57.5579 49.338 57.869 50.1 58.6333C50.6605 57.7293 51.352 57.5183 52.175 58C52.547 58.2302 52.772 58.6191 52.85 59.1667C52.8835 61.0778 52.8835 62.9889 52.85 64.9C52.829 65.7273 52.5205 66.2273 51.925 66.4C51.5415 66.4445 51.1585 66.4445 50.775 66.4C50.6525 66.3517 50.536 66.285 50.425 66.2C50.331 66.0519 50.2225 65.9296 50.1 65.8333C49.0597 66.6807 47.9847 66.7807 46.875 66.1333C46.1503 65.4098 45.7419 64.4431 45.65 63.2333C45.437 61.6472 45.6537 60.1805 46.3 58.8333C46.6367 58.3047 47.0451 57.9269 47.525 57.7Z" fill="#0363DB"/>
    <path fill-rule="evenodd" clip-rule="evenodd" d="M75.225 57.7C76.21 57.5421 77.085 57.8754 77.85 58.7C78.0335 58.2161 78.3255 57.9161 78.725 57.8C79.347 57.6676 79.889 57.8787 80.35 58.4333C80.459 58.6577 80.526 58.9022 80.55 59.1667C80.5835 61.1445 80.5835 63.1222 80.55 65.1C80.499 65.8571 80.1905 66.2904 79.625 66.4C79.2415 66.4445 78.8585 66.4445 78.475 66.4C78.226 66.2783 78.009 66.0894 77.825 65.8333C77.0525 66.4455 76.2195 66.6787 75.325 66.5333C74.385 66.169 73.777 65.3579 73.5 64.1C73.2525 62.7154 73.269 61.3377 73.55 59.9667C73.8535 58.8621 74.412 58.1065 75.225 57.7Z" fill="#0363DB"/>
    <path fill-rule="evenodd" clip-rule="evenodd" d="M23.375 57.7667C23.8495 57.7304 24.2995 57.8527 24.725 58.1333C24.8342 58.2677 24.9342 58.4122 25.025 58.5667C25.4039 58.2029 25.8206 57.9474 26.275 57.8C27.5289 57.6719 28.0873 58.4385 27.95 60.1C27.7226 61.0236 27.2476 61.3903 26.525 61.2C26.3445 61.0704 26.1778 60.9149 26.025 60.7333C25.7429 60.4856 25.4846 60.5189 25.25 60.8333C25.2333 62.2333 25.2166 63.6333 25.2 65.0333C25.1492 65.804 24.8408 66.2595 24.275 66.4C23.875 66.4445 23.475 66.4445 23.075 66.4C22.6662 66.2341 22.4246 65.8674 22.35 65.3C22.27 63.3463 22.2533 61.3907 22.3 59.4333C22.4025 58.5751 22.7608 58.0195 23.375 57.7667Z" fill="#0563DB"/>
    <path fill-rule="evenodd" clip-rule="evenodd" d="M32.125 59.9C32.4424 59.8589 32.6841 60.0145 32.85 60.3667C32.8834 61.5445 32.8834 62.7222 32.85 63.9C32.7196 64.1815 32.5279 64.3148 32.275 64.3C32.0666 64.3233 31.9082 64.2121 31.8 63.9667C31.7015 63.6637 31.6182 63.3526 31.55 63.0333C31.5167 62.4333 31.5167 61.8333 31.55 61.2333C31.6275 60.6924 31.8192 60.2479 32.125 59.9Z" fill="#FCFDFE"/>
    <path fill-rule="evenodd" clip-rule="evenodd" d="M40.575 59.9667C40.9009 59.8749 41.1593 60.0082 41.35 60.3667C41.3834 61.5667 41.3834 62.7667 41.35 63.9667C40.9943 64.4873 40.6443 64.4873 40.3 63.9667C40.187 63.67 40.1036 63.3589 40.05 63.0333C40.0167 62.4555 40.0167 61.8778 40.05 61.3C40.134 60.7871 40.309 60.3426 40.575 59.9667Z" fill="#FDFDFE"/>
    <path fill-rule="evenodd" clip-rule="evenodd" d="M49.175 59.9C49.4883 59.8577 49.73 60.0133 49.9 60.3667C49.9334 61.5445 49.9334 62.7222 49.9 63.9C49.6935 64.2743 49.4185 64.3965 49.075 64.2667C48.8049 63.9353 48.6466 63.5242 48.6 63.0333C48.4398 62.0489 48.5398 61.1156 48.9 60.2333C48.9906 60.1133 49.0823 60.0022 49.175 59.9Z" fill="#FCFCFE"/>
    <path fill-rule="evenodd" clip-rule="evenodd" d="M76.925 59.9C77.2515 59.8785 77.493 60.0563 77.65 60.4333C77.6835 61.5889 77.6835 62.7445 77.65 63.9C77.2135 64.5609 76.83 64.5164 76.5 63.7667C76.2395 62.8055 76.206 61.8277 76.4 60.8333C76.493 60.4328 76.668 60.1217 76.925 59.9Z" fill="#F9FAFE"/>
  </g>
  <defs>
    <clipPath id="clip0_6_49">
      <rect width="100" height="100" fill="white"/>
    </clipPath>
  </defs>
</svg>